<svg xmlns="http://www.w3.org/2000/svg" fill="none" viewBox="0 0 680 680"><g clip-path="url(#a)"><path fill="#F7E4B4" d="M1 1h677v677H1z"/><path fill="#7DD9C2" d="M244 27h197v195H244z"/><path fill="#A277CE" d="M460 244h197v195H460zM25 462h197v195H25zm217 0h197v195H242z"/><path fill="#7DD9C2" d="M244 243h197v195H244z"/><path fill="#000" d="M17.5312 1.46094C11.5547 3.1875 3.05468 12.0859 1.32812 18.3281.398429 22.0469.132804 120.992.265617 342.789L.664054 662.07l3.187496 5.047c1.72657 2.789 5.57813 6.641 8.50005 8.633l5.4453 3.586H662.203l5.445-3.586c2.922-1.992 6.774-5.844 8.5-8.633l3.188-5.047.398-243.312.266-243.313-3.852-4.383c-3.187-3.585-4.781-4.382-9.429-4.382-4.649 0-6.242.797-9.43 4.382l-3.852 4.25v42.5H462.188V26.5625h191.117l.398 20.0547.399 20.0547 3.718 3.1875c5.047 4.3828 12.75 4.3828 17.797 0l3.719-3.1875V42.2344c0-24.3047 0-24.5703-3.586-29.8828-1.992-2.92191-5.844-6.77348-8.633-8.50004L662.07.664062 341.992.398438C142.508.265625 20.3203.664062 17.5312 1.46094ZM217.812 122.188v95.624H26.5625V26.5625H217.812v95.6255Zm217.813 0v95.624h-191.25V26.5625h191.25v95.6255ZM217.812 340v95.625H26.5625v-191.25H217.812V340Zm217.813 0v95.625h-191.25v-191.25h191.25V340Zm217.812 0v95.625H462.188v-191.25h191.249V340ZM217.812 557.812v95.626H26.5625v-191.25H217.812v95.624Zm217.813 0v95.626h-191.25v-191.25h191.25v95.624Zm217.812 0v95.626H462.188v-191.25h191.249v95.624Z"/><path fill="#000" d="M323.133 55.1172c-30.414 8.2343-52.195 36.2578-52.195 67.0698 0 37.454 31.609 69.063 69.062 69.063 31.211 0 59.102-21.781 67.07-52.727 9.297-35.726-13.679-73.8433-50.601-83.4058-9.563-2.3907-24.172-2.3907-33.336 0Zm34.531 28.9531c26.297 12.2188 32.539 47.4137 12.086 67.8667-16.203 16.204-43.297 16.204-59.5 0-16.203-16.203-16.203-43.429 0-59.3667 12.883-12.75 31.211-16.0703 47.414-8.5ZM323.133 272.93c-30.414 8.234-52.195 36.257-52.195 67.07 0 31.211 21.914 59.101 52.726 67.07 35.859 9.297 73.844-13.68 83.406-50.734 9.297-35.727-13.679-73.844-50.601-83.406-9.563-2.391-24.172-2.391-33.336 0Zm34.531 28.953c26.297 12.218 32.539 47.414 12.086 67.867-16.203 16.203-43.297 16.203-59.5 0-16.203-16.203-16.203-43.43 0-59.367 12.883-12.75 31.211-16.071 47.414-8.5Zm134.938-27.094c-3.055 3.055-3.852 5.047-3.852 9.563 0 5.578.398 6.109 24.836 30.679L538.422 340l-24.836 24.969c-24.438 24.57-24.836 25.101-24.836 30.679 0 7.969 5.445 13.414 13.414 13.414 5.578 0 6.109-.398 30.68-24.835l24.968-24.836 24.969 24.836c24.571 24.437 25.102 24.835 30.68 24.835 7.969 0 13.414-5.445 13.414-13.414 0-5.578-.398-6.109-24.836-30.679L577.203 340l24.836-24.969c24.438-24.57 24.836-25.101 24.836-30.679 0-7.969-5.445-13.414-13.414-13.414-5.578 0-6.109.398-30.68 24.835l-24.969 24.836-24.968-24.836c-24.571-24.437-25.102-24.835-30.68-24.835-4.516 0-6.508.796-9.562 3.851ZM56.9766 492.602c-3.0547 3.054-3.8516 5.046-3.8516 9.562 0 5.578.3984 6.109 24.8359 30.68l24.8361 24.968-24.8361 24.969c-24.4375 24.571-24.8359 25.102-24.8359 30.68 0 7.969 5.4453 13.414 13.4141 13.414 5.5781 0 6.1093-.398 30.6797-24.836l24.9692-24.836 24.968 24.836c24.571 24.438 25.102 24.836 30.68 24.836 7.969 0 13.414-5.445 13.414-13.414 0-5.578-.398-6.109-24.836-30.68l-24.836-24.969 24.836-24.968c24.438-24.571 24.836-25.102 24.836-30.68 0-7.969-5.445-13.414-13.414-13.414-5.578 0-6.109.398-30.68 24.836l-24.968 24.836-24.9692-24.836c-24.5704-24.438-25.1016-24.836-30.6797-24.836-4.5157 0-6.5079.797-9.5625 3.852Zm217.8124 0c-3.055 3.054-3.851 5.046-3.851 9.562 0 5.578.398 6.109 24.835 30.68l24.836 24.968-24.836 24.969c-24.437 24.571-24.835 25.102-24.835 30.68 0 7.969 5.445 13.414 13.414 13.414 5.578 0 6.109-.398 30.679-24.836L340 577.203l24.969 24.836c24.57 24.438 25.101 24.836 30.679 24.836 7.969 0 13.414-5.445 13.414-13.414 0-5.578-.398-6.109-24.835-30.68l-24.836-24.969 24.836-24.968c24.437-24.571 24.835-25.102 24.835-30.68 0-7.969-5.445-13.414-13.414-13.414-5.578 0-6.109.398-30.679 24.836L340 538.422l-24.969-24.836c-24.57-24.438-25.101-24.836-30.679-24.836-4.516 0-6.508.797-9.563 3.852Zm387.148-385.157c-1.593.664-4.117 2.922-5.843 5.047-2.258 2.922-2.789 4.781-2.258 9.031 2.125 15.274 23.641 15.274 25.766-.132.531-4.649.132-6.11-3.055-9.696-4.117-4.383-10.094-6.109-14.61-4.25Z"/></g><defs><clipPath id="a"><rect width="680" height="680" fill="#fff" rx="44"/></clipPath></defs></svg>